<?xml version="1.0" encoding="UTF-8" standalone="no"?>
<!-- Created with Inkscape (http://www.inkscape.org/) -->

<svg
   width="270mm"
   height="109mm"
   viewBox="0 0 270 109"
   version="1.1"
   id="svg5"
   sodipodi:docname="centroid.svg"
   inkscape:version="1.1.2 (b8e25be8, 2022-02-05)"
   inkscape:export-filename="/Users/yanagimotor/Dropbox/Main/yanagimotor.github.io/images/blog-post/centroid.png"
   inkscape:export-xdpi="75.267891"
   inkscape:export-ydpi="75.267891"
   xmlns:inkscape="http://www.inkscape.org/namespaces/inkscape"
   xmlns:sodipodi="http://sodipodi.sourceforge.net/DTD/sodipodi-0.dtd"
   xmlns="http://www.w3.org/2000/svg"
   xmlns:svg="http://www.w3.org/2000/svg">
  <sodipodi:namedview
     id="namedview7"
     pagecolor="#ffffff"
     bordercolor="#666666"
     borderopacity="1.0"
     inkscape:pageshadow="2"
     inkscape:pageopacity="0.0"
     inkscape:pagecheckerboard="0"
     inkscape:document-units="mm"
     showgrid="false"
     inkscape:zoom="0.68662172"
     inkscape:cx="364.82971"
     inkscape:cy="195.88661"
     inkscape:window-width="1920"
     inkscape:window-height="999"
     inkscape:window-x="0"
     inkscape:window-y="25"
     inkscape:window-maximized="0"
     inkscape:current-layer="layer1" />
  <defs
     id="defs2">
    <marker
       style="overflow:visible"
       id="Arrow1Send"
       refX="0"
       refY="0"
       orient="auto"
       inkscape:stockid="Arrow1Send"
       inkscape:isstock="true">
      <path
         transform="matrix(-0.2,0,0,-0.2,-1.2,0)"
         style="fill:context-stroke;fill-rule:evenodd;stroke:context-stroke;stroke-width:1pt"
         d="M 0,0 5,-5 -12.5,0 5,5 Z"
         id="path1122" />
    </marker>
  </defs>
  <g
     inkscape:label="Layer 1"
     inkscape:groupmode="layer"
     id="layer1">
    <path
       style="fill:none;stroke:#000000;stroke-width:0.6;stroke-linecap:butt;stroke-linejoin:miter;stroke-miterlimit:4;stroke-dasharray:none;stroke-opacity:1;marker-end:url(#Arrow1Send)"
       d="M 3.2972069,41.558601 H 77.955918"
       id="path857" />
    <path
       style="fill:none;stroke:#f80000;stroke-width:1;stroke-linejoin:round;stroke-miterlimit:4;stroke-dasharray:none;stroke-opacity:1"
       d="m 11.73697,40.983668 c 0.651562,-7.47e-4 1.303024,-0.0019 1.954486,-0.0042 0.651563,-0.0023 1.303025,-0.0057 1.954587,-0.01225 0.651462,-0.0065 1.302925,-0.01598 1.954487,-0.03271 0.651462,-0.01673 1.303024,-0.04057 1.954486,-0.07975 0.651463,-0.03913 1.303025,-0.09354 1.954487,-0.176926 0.651562,-0.08338 1.303025,-0.195943 1.954487,-0.357137 0.651562,-0.161195 1.303024,-0.371674 1.954486,-0.653839 0.651563,-0.282165 1.303025,-0.637062 1.954587,-1.082313 0.651462,-0.445302 1.302925,-0.982252 1.954487,-1.612046 0.651462,-0.629744 1.303024,-1.353427 1.954486,-2.144067 0.651463,-0.79059 1.303025,-1.648336 1.954487,-2.514446 0.651562,-0.866109 1.303025,-1.739438 1.954487,-2.539337 0.651562,-0.799899 1.303024,-1.52403 1.954587,-2.093692 0.651462,-0.569667 1.302924,-0.982197 1.954486,-1.189206 0.651462,-0.207009 1.303025,-0.206606 1.954487,0 0.651462,0.206601 1.303024,0.619847 1.954487,1.189206 0.651562,0.569363 1.303024,1.293942 1.954486,2.093692 0.651562,0.79975 1.303025,1.673178 1.954487,2.539337 0.651562,0.86611 1.303024,1.723707 1.954587,2.514446 0.651462,0.79074 1.302924,1.514124 1.954486,2.144067 0.651462,0.629944 1.303025,1.166595 1.954487,1.612046 0.651462,0.44545 1.303024,0.800048 1.954487,1.082313 0.651562,0.282315 1.303024,0.492545 1.954486,0.653839 0.651563,0.161294 1.303025,0.273702 1.954587,0.357137 0.651462,0.08344 1.302924,0.137747 1.954487,0.176926 0.651462,0.03918 1.303024,0.06302 1.954486,0.07975 0.651463,0.01673 1.303025,0.02619 1.954487,0.03271 0.651562,0.0065 1.303024,0.01 1.954487,0.01225 0.651562,0.0023 1.303024,0.0034 1.954586,0.0042"
       title="exp(-x*x)"
       id="path892" />
    <path
       style="fill:none;stroke:#000000;stroke-width:0.6;stroke-linecap:butt;stroke-linejoin:miter;stroke-miterlimit:4;stroke-dasharray:none;stroke-opacity:1;marker-end:url(#Arrow1Send)"
       d="M 93.255519,41.558601 H 167.91424"
       id="path1375" />
    <path
       style="fill:none;stroke:#0054ff;stroke-width:0.918224;stroke-linejoin:round;stroke-miterlimit:4;stroke-dasharray:none;stroke-opacity:1"
       d="m 101.70244,41.060828 c 0.65159,-6.29e-4 1.30309,-0.0016 1.95459,-0.0035 0.65159,-0.0019 1.30308,-0.0048 1.95468,-0.01033 0.6515,-0.0055 1.30299,-0.01347 1.95458,-0.02758 0.6515,-0.01411 1.30309,-0.0342 1.95459,-0.06724 0.65149,-0.03299 1.30308,-0.07886 1.95459,-0.149165 0.6516,-0.0703 1.30309,-0.165198 1.95458,-0.301099 0.6516,-0.135903 1.30309,-0.313356 1.95459,-0.551247 0.65159,-0.237891 1.30309,-0.537102 1.95468,-0.91249 0.6515,-0.375431 1.30299,-0.828129 1.95459,-1.359104 0.65149,-0.530933 1.30308,-1.141064 1.95458,-1.807647 0.6515,-0.666541 1.30309,-1.3897 1.95458,-2.119911 0.6516,-0.73021 1.30309,-1.466507 1.95459,-2.140896 0.65159,-0.674389 1.30308,-1.284898 1.95469,-1.765176 0.6515,-0.480282 1.30299,-0.828083 1.95458,-1.002611 0.6515,-0.174528 1.3031,-0.174188 1.95459,0 0.65149,0.174184 1.30308,0.522588 1.95459,1.002611 0.65159,0.480025 1.30308,1.090913 1.95457,1.765176 0.65161,0.674263 1.3031,1.410644 1.95459,2.140896 0.65159,0.730211 1.30308,1.453245 1.95469,2.119911 0.65149,0.666667 1.30298,1.276547 1.95457,1.807647 0.65151,0.531101 1.3031,0.983547 1.95459,1.359104 0.65149,0.375555 1.30309,0.674514 1.95459,0.91249 0.65159,0.238018 1.30308,0.415261 1.95458,0.551247 0.6516,0.135986 1.30309,0.230756 1.95469,0.301099 0.6515,0.07035 1.30299,0.116134 1.95459,0.149165 0.65149,0.03303 1.30308,0.05313 1.95458,0.06724 0.6515,0.01411 1.30309,0.02208 1.95458,0.02758 0.6516,0.0055 1.30309,0.0084 1.95459,0.01033 0.65159,0.0019 1.30309,0.0029 1.95468,0.0035"
       title="exp(-x*x)"
       id="path1377" />
    <text
       xml:space="preserve"
       style="font-size:19.807px;line-height:1.25;font-family:Arial;-inkscape-font-specification:Arial;text-align:center;text-anchor:middle;stroke-width:0.495176"
       x="85.31279"
       y="40.565281"
       id="text1667"><tspan
         sodipodi:role="line"
         id="tspan1665"
         style="stroke-width:0.495176"
         x="85.31279"
         y="40.565281">+</tspan></text>
    <text
       xml:space="preserve"
       style="font-size:19.807px;line-height:1.25;font-family:Arial;-inkscape-font-specification:Arial;text-align:center;text-anchor:middle;stroke-width:0.495176"
       x="179.50458"
       y="40.565281"
       id="text2059"><tspan
         sodipodi:role="line"
         id="tspan2057"
         style="stroke-width:0.495176"
         x="179.50458"
         y="40.565281">=</tspan></text>
    <path
       style="fill:none;stroke:#000000;stroke-width:0.6;stroke-linecap:butt;stroke-linejoin:miter;stroke-miterlimit:4;stroke-dasharray:none;stroke-opacity:1;marker-end:url(#Arrow1Send)"
       d="M 188.50554,42.087768 H 263.1643"
       id="path2163" />
    <path
       style="fill:none;stroke:#9a00ff;stroke-width:1.06932;stroke-linejoin:round;stroke-opacity:1"
       d="m 196.95397,41.1967 c 0.65146,-0.0017 1.30282,-0.0043 1.95419,-0.0096 0.65146,-0.0053 1.30282,-0.01315 1.95428,-0.02813 0.65136,-0.01498 1.30273,-0.03671 1.95419,-0.07513 0.65136,-0.03842 1.30282,-0.0932 1.95418,-0.183189 0.65137,-0.08988 1.30283,-0.214864 1.9542,-0.406401 0.65146,-0.191536 1.30282,-0.450082 1.95419,-0.820349 0.65146,-0.370266 1.30282,-0.853739 1.95418,-1.501876 0.65147,-0.648138 1.30283,-1.463341 1.95429,-2.48609 0.65136,-1.022863 1.30272,-2.256245 1.95419,-3.70289 0.65136,-1.446531 1.30282,-3.108841 1.95418,-4.924952 0.65136,-1.815997 1.30283,-3.786253 1.95419,-5.775719 0.65146,-1.989466 1.30282,-3.995513 1.95418,-5.832893 0.65147,-1.83738 1.30283,-3.500719 1.9543,-4.809241 0.65136,-1.3085333 1.30272,-2.2561203 1.95419,-2.7316223 0.65136,-0.475503 1.30282,-0.474577 1.95418,0 0.65137,0.474565 1.30283,1.423798 1.95419,2.7316223 0.65146,1.307835 1.30282,2.972204 1.95419,4.809241 0.65146,1.837037 1.30282,3.843313 1.95418,5.832893 0.65146,1.989466 1.30283,3.959379 1.95429,5.775719 0.65136,1.816339 1.30272,3.477963 1.95418,4.924952 0.65137,1.446988 1.30283,2.679684 1.95419,3.70289 0.65136,1.023207 1.30282,1.837724 1.95419,2.48609 0.65146,0.64848 1.30282,1.131381 1.95418,1.501876 0.65147,0.370495 1.30283,0.628698 1.9543,0.820349 0.65136,0.191651 1.30272,0.316407 1.95419,0.406401 0.65136,0.08999 1.30282,0.144768 1.95418,0.183189 0.65136,0.03842 1.30283,0.06015 1.95419,0.07513 0.65146,0.01498 1.30282,0.02287 1.95418,0.02813 0.65147,0.0054 1.30283,0.0079 1.95429,0.0096"
       title="exp(-x*x)"
       id="path2165" />
    <text
       xml:space="preserve"
       style="font-size:19.807px;line-height:1.25;font-family:Arial;-inkscape-font-specification:Arial;text-align:center;text-anchor:middle;stroke-width:0.495176"
       x="179.50458"
       y="92.423615"
       id="text3578"><tspan
         sodipodi:role="line"
         id="tspan3576"
         style="stroke-width:0.495176"
         x="179.50458"
         y="92.423615">=</tspan></text>
    <path
       style="fill:none;stroke:#000000;stroke-width:0.6;stroke-linecap:butt;stroke-linejoin:miter;stroke-miterlimit:4;stroke-dasharray:none;stroke-opacity:1;marker-end:url(#Arrow1Send)"
       d="M 188.50554,94.47527 H 263.1643"
       id="path3580" />
    <path
       style="fill:none;stroke:#f80000;stroke-width:1;stroke-linejoin:round;stroke-miterlimit:4;stroke-dasharray:none;stroke-opacity:0.374723"
       d="m 199.06316,41.477507 c 0.65162,-8.54e-4 1.30314,-0.0022 1.95467,-0.0048 0.65162,-0.0026 1.30314,-0.0065 1.95476,-0.01401 0.65152,-0.0075 1.30304,-0.01828 1.95466,-0.03742 0.65152,-0.01914 1.30314,-0.04642 1.95466,-0.09124 0.65152,-0.04477 1.30314,-0.107019 1.95467,-0.202419 0.65162,-0.0954 1.30314,-0.224174 1.95467,-0.408595 0.65162,-0.18442 1.30314,-0.425226 1.95466,-0.748047 0.65162,-0.322821 1.30314,-0.728853 1.95476,-1.238259 0.65152,-0.509462 1.30304,-1.123779 1.95466,-1.844317 0.65152,-0.720481 1.30314,-1.548436 1.95466,-2.452995 0.65152,-0.904502 1.30314,-1.885837 1.95467,-2.87674 0.65162,-0.990904 1.30314,-1.990065 1.95466,-2.905218 0.65162,-0.915154 1.30314,-1.743621 1.95477,-2.395363 0.65152,-0.651747 1.30304,-1.123717 1.95466,-1.360553 0.65152,-0.236836 1.30314,-0.236374 1.95466,0 0.65152,0.236369 1.30314,0.709159 1.95466,1.360553 0.65163,0.6514 1.30315,1.48038 1.95467,2.395363 0.65162,0.914982 1.30314,1.914257 1.95466,2.905218 0.65162,0.990903 1.30314,1.972067 1.95476,2.87674 0.65152,0.904673 1.30304,1.732287 1.95466,2.452995 0.65152,0.720709 1.30314,1.334684 1.95466,1.844317 0.65153,0.509634 1.30315,0.915324 1.95467,1.238259 0.65162,0.322992 1.30314,0.563513 1.95466,0.748047 0.65162,0.184534 1.30314,0.313139 1.95477,0.408595 0.65152,0.09546 1.30304,0.157595 1.95466,0.202419 0.65152,0.04482 1.30314,0.07211 1.95466,0.09124 0.65153,0.01914 1.30315,0.02996 1.95467,0.03742 0.65162,0.0075 1.30314,0.01139 1.95466,0.01401 0.65162,0.0027 1.30314,0.0039 1.95476,0.0048"
       title="exp(-x*x)"
       id="path4052" />
    <path
       style="fill:none;stroke:#0054ff;stroke-width:0.952814;stroke-linejoin:round;stroke-miterlimit:4;stroke-dasharray:none;stroke-opacity:0.359202"
       d="m 194.83009,41.522769 c 0.65163,-7.75e-4 1.30317,-0.002 1.95471,-0.0044 0.65164,-0.0024 1.30318,-0.0059 1.95482,-0.01272 0.65154,-0.0068 1.30308,-0.0166 1.95473,-0.03397 0.65154,-0.01738 1.30318,-0.04214 1.95472,-0.08283 0.65154,-0.04064 1.30318,-0.09716 1.95473,-0.183761 0.65164,-0.08661 1.30318,-0.203512 1.95472,-0.370934 0.65164,-0.167421 1.30318,-0.386032 1.95472,-0.679097 0.65164,-0.293066 1.30318,-0.661673 1.95483,-1.124125 0.65154,-0.462504 1.30308,-1.020197 1.95472,-1.674321 0.65154,-0.654072 1.30318,-1.405712 1.95472,-2.226895 0.65154,-0.821132 1.30318,-1.712014 1.95472,-2.611583 0.65164,-0.899569 1.30318,-1.806635 1.95472,-2.637435 0.65164,-0.830802 1.30318,-1.582907 1.95484,-2.174576 0.65154,-0.591673 1.30308,-1.02014 1.95472,-1.235146 0.65154,-0.215007 1.30318,-0.214587 1.95472,0 0.65154,0.214582 1.30318,0.643793 1.95472,1.235146 0.65164,0.591359 1.30318,1.343929 1.95472,2.174576 0.65164,0.830645 1.30318,1.737814 1.95472,2.637435 0.65165,0.899569 1.30319,1.790296 1.95483,2.611583 0.65154,0.821286 1.30308,1.572617 1.95472,2.226895 0.65154,0.654279 1.30318,1.211662 1.95472,1.674321 0.65154,0.462659 1.30318,0.830956 1.95472,1.124125 0.65164,0.293221 1.30318,0.511572 1.95472,0.679097 0.65165,0.167525 1.30319,0.284276 1.95484,0.370934 0.65154,0.08666 1.30308,0.143069 1.95472,0.183761 0.65154,0.04069 1.30318,0.06546 1.95472,0.08283 0.65154,0.01738 1.30318,0.0272 1.95472,0.03397 0.65164,0.0068 1.30318,0.01034 1.95472,0.01272 0.65165,0.0025 1.30319,0.0035 1.95482,0.0044"
       title="exp(-x*x)"
       id="path4054" />
    <path
       style="fill:none;stroke:#000000;stroke-width:0.6;stroke-linecap:butt;stroke-linejoin:miter;stroke-miterlimit:4;stroke-dasharray:none;stroke-opacity:1;marker-end:url(#Arrow1Send)"
       d="M 3.2972069,94.475274 H 77.955918"
       id="path4522" />
    <path
       style="fill:none;stroke:#f80000;stroke-width:1;stroke-linejoin:round;stroke-miterlimit:4;stroke-dasharray:none;stroke-opacity:1"
       d="m 11.73697,93.900341 c 0.651562,-7.47e-4 1.303024,-0.0019 1.954486,-0.0042 0.651563,-0.0023 1.303025,-0.0057 1.954587,-0.01225 0.651462,-0.0065 1.302925,-0.01598 1.954487,-0.03271 0.651462,-0.01673 1.303024,-0.04057 1.954486,-0.07975 0.651463,-0.03913 1.303025,-0.09354 1.954487,-0.176926 0.651562,-0.08338 1.303025,-0.195943 1.954487,-0.357137 0.651562,-0.161195 1.303024,-0.371674 1.954486,-0.653839 0.651563,-0.282165 1.303025,-0.637062 1.954587,-1.082313 0.651462,-0.445302 1.302925,-0.982252 1.954487,-1.612046 0.651462,-0.629744 1.303024,-1.353427 1.954486,-2.144067 0.651463,-0.79059 1.303025,-1.648336 1.954487,-2.514446 0.651562,-0.866109 1.303025,-1.739438 1.954487,-2.539337 0.651562,-0.799899 1.303024,-1.52403 1.954587,-2.093692 0.651462,-0.569667 1.302924,-0.982197 1.954486,-1.189206 0.651462,-0.207009 1.303025,-0.206606 1.954487,0 0.651462,0.206601 1.303024,0.619847 1.954487,1.189206 0.651562,0.569363 1.303024,1.293942 1.954486,2.093692 0.651562,0.79975 1.303025,1.673178 1.954487,2.539337 0.651562,0.86611 1.303024,1.723707 1.954587,2.514446 0.651462,0.79074 1.302924,1.514124 1.954486,2.144067 0.651462,0.629944 1.303025,1.166595 1.954487,1.612046 0.651462,0.44545 1.303024,0.800048 1.954487,1.082313 0.651562,0.282315 1.303024,0.492545 1.954486,0.653839 0.651563,0.161294 1.303025,0.273702 1.954587,0.357137 0.651462,0.08344 1.302924,0.137747 1.954487,0.176926 0.651462,0.03918 1.303024,0.06302 1.954486,0.07975 0.651463,0.01673 1.303025,0.02619 1.954487,0.03271 0.651562,0.0065 1.303024,0.01 1.954487,0.01225 0.651562,0.0023 1.303024,0.0034 1.954586,0.0042"
       title="exp(-x*x)"
       id="path4524" />
    <path
       style="fill:none;stroke:#000000;stroke-width:0.6;stroke-linecap:butt;stroke-linejoin:miter;stroke-miterlimit:4;stroke-dasharray:none;stroke-opacity:1;marker-end:url(#Arrow1Send)"
       d="M 93.255519,94.475274 H 167.91424"
       id="path4526" />
    <path
       style="fill:none;stroke:#0054ff;stroke-width:0.908683;stroke-linejoin:round;stroke-miterlimit:4;stroke-dasharray:none;stroke-opacity:1"
       d="m 101.70228,93.986082 c 0.65159,-6.17e-4 1.30309,-0.0016 1.9546,-0.0035 0.65159,-0.0019 1.30309,-0.0047 1.95468,-0.01011 0.65151,-0.0054 1.30301,-0.01319 1.9546,-0.02701 0.6515,-0.01381 1.30309,-0.0335 1.9546,-0.06585 0.6515,-0.03231 1.30309,-0.07723 1.9546,-0.14608 0.65161,-0.06884 1.3031,-0.161782 1.9546,-0.294874 0.65159,-0.133092 1.30309,-0.306876 1.9546,-0.539848 0.65159,-0.232972 1.30309,-0.525996 1.95468,-0.893622 0.65151,-0.367668 1.30301,-0.811006 1.9546,-1.331001 0.6515,-0.519954 1.3031,-1.11747 1.9546,-1.770269 0.6515,-0.652758 1.30309,-1.360964 1.95459,-2.076076 0.65161,-0.715111 1.3031,-1.436184 1.9546,-2.096628 0.65159,-0.660444 1.30309,-1.25833 1.95471,-1.728676 0.65149,-0.470351 1.30299,-0.810961 1.95459,-0.981879 0.6515,-0.170919 1.3031,-0.170587 1.95459,0 0.6515,0.170582 1.3031,0.511782 1.9546,0.981879 0.6516,0.4701 1.3031,1.068355 1.95459,1.728676 0.65161,0.660321 1.3031,1.381475 1.9546,2.096628 0.6516,0.715112 1.30309,1.423195 1.9547,2.076076 0.65149,0.652882 1.30299,1.250151 1.95459,1.770269 0.6515,0.520119 1.3031,0.96321 1.9546,1.331001 0.65149,0.36779 1.30309,0.660567 1.95459,0.893622 0.6516,0.233096 1.3031,0.406674 1.95459,0.539848 0.65161,0.133174 1.3031,0.225985 1.95471,0.294874 0.6515,0.06889 1.30299,0.113732 1.9546,0.14608 0.6515,0.03235 1.30309,0.05203 1.95459,0.06585 0.6515,0.01381 1.3031,0.02162 1.9546,0.02701 0.65159,0.0054 1.30309,0.0083 1.95459,0.01011 0.6516,0.0019 1.3031,0.0028 1.95469,0.0035"
       title="exp(-x*x)"
       id="path4528" />
    <path
       style="fill:none;stroke:#000000;stroke-width:1.5;stroke-linecap:butt;stroke-linejoin:miter;stroke-miterlimit:4;stroke-dasharray:none;stroke-opacity:1"
       d="M 81.498119,85.368352 H 89.94491"
       id="path4567" />
    <path
       style="fill:none;stroke:#f80000;stroke-width:1;stroke-linejoin:round;stroke-miterlimit:4;stroke-dasharray:none;stroke-opacity:0.496674"
       d="m 201.70788,93.900341 c 0.65156,-7.47e-4 1.30302,-0.0019 1.95448,-0.0042 0.65157,-0.0023 1.30303,-0.0057 1.95459,-0.01225 0.65147,-0.0065 1.30293,-0.01598 1.95449,-0.03271 0.65146,-0.01673 1.30302,-0.04057 1.95449,-0.07975 0.65146,-0.03913 1.30302,-0.09354 1.95449,-0.176926 0.65156,-0.08338 1.30302,-0.195943 1.95448,-0.357137 0.65157,-0.161195 1.30303,-0.371674 1.95449,-0.653839 0.65156,-0.282165 1.30303,-0.637062 1.95459,-1.082313 0.65146,-0.445302 1.30292,-0.982252 1.95449,-1.612046 0.65146,-0.629744 1.30302,-1.353427 1.95448,-2.144067 0.65147,-0.79059 1.30303,-1.648336 1.95449,-2.514446 0.65156,-0.866109 1.30303,-1.739438 1.95449,-2.539337 0.65156,-0.799899 1.30302,-1.52403 1.95459,-2.093692 0.65146,-0.569667 1.30292,-0.982197 1.95449,-1.189206 0.65146,-0.207009 1.30302,-0.206606 1.95448,0 0.65146,0.206601 1.30303,0.619847 1.95449,1.189206 0.65156,0.569363 1.30303,1.293942 1.95449,2.093692 0.65156,0.79975 1.30302,1.673178 1.95449,2.539337 0.65156,0.86611 1.30302,1.723707 1.95459,2.514446 0.65146,0.79074 1.30292,1.514124 1.95448,2.144067 0.65146,0.629944 1.30303,1.166595 1.95449,1.612046 0.65146,0.44545 1.30303,0.800048 1.95449,1.082313 0.65156,0.282315 1.30302,0.492545 1.95448,0.653839 0.65157,0.161294 1.30303,0.273702 1.95459,0.357137 0.65147,0.08344 1.30293,0.137747 1.95449,0.176926 0.65146,0.03918 1.30303,0.06302 1.95449,0.07975 0.65146,0.01673 1.30303,0.02619 1.95449,0.03271 0.65156,0.0065 1.30302,0.01 1.95448,0.01225 0.65157,0.0023 1.30303,0.0034 1.95459,0.0042"
       title="exp(-x*x)"
       id="path4809" />
    <path
       style="fill:none;stroke:#0054ff;stroke-width:0.937013;stroke-linejoin:round;stroke-miterlimit:4;stroke-dasharray:none;stroke-opacity:0.456763"
       d="m 193.24864,94.540774 c 0.65158,6.56e-4 1.30307,0.0017 1.95456,0.0037 0.65158,0.002 1.30307,0.005 1.95465,0.01076 0.6515,0.0057 1.30298,0.01403 1.95457,0.02872 0.65148,0.01469 1.30307,0.03562 1.95456,0.07002 0.65149,0.03436 1.30307,0.08213 1.95457,0.155334 0.65159,0.0732 1.30308,0.17203 1.95456,0.313552 0.65159,0.141523 1.30307,0.326315 1.95457,0.574044 0.65158,0.24773 1.30307,0.559315 1.95465,0.950228 0.6515,0.390957 1.30298,0.862378 1.95457,1.415311 0.65148,0.55289 1.30307,1.188255 1.95456,1.882405 0.65149,0.694112 1.30307,1.447172 1.95456,2.207592 0.65159,0.76041 1.30308,1.52717 1.95456,2.22945 0.65159,0.70228 1.30307,1.33805 1.95468,1.83819 0.65148,0.50015 1.30297,0.86234 1.95455,1.04409 0.6515,0.18174 1.30308,0.18138 1.95457,0 0.65148,-0.1814 1.30307,-0.54421 1.95456,-1.04409 0.65159,-0.49988 1.30307,-1.13604 1.95456,-1.83819 0.65159,-0.70214 1.30308,-1.46899 1.95456,-2.22945 0.65159,-0.76042 1.30307,-1.51335 1.95467,-2.207592 0.65148,-0.694238 1.30297,-1.32934 1.95455,-1.882405 0.6515,-0.553065 1.30308,-1.024223 1.95457,-1.415311 0.65148,-0.391087 1.30307,-0.70241 1.95456,-0.950228 0.65159,-0.247861 1.30307,-0.432434 1.95456,-0.574044 0.65159,-0.14161 1.30308,-0.240299 1.95467,-0.313552 0.65149,-0.07326 1.30297,-0.120936 1.95457,-0.155334 0.65148,-0.0344 1.30307,-0.05533 1.95455,-0.07002 0.6515,-0.01469 1.30308,-0.02299 1.95457,-0.02872 0.65158,-0.0057 1.30307,-0.0088 1.95456,-0.01076 0.65158,-0.002 1.30307,-0.003 1.95465,-0.0037"
       title="exp(-x*x)"
       id="path4811" />
    <path
       style="fill:none;stroke:#9a00ff;stroke-width:1;stroke-linejoin:round;stroke-miterlimit:4;stroke-dasharray:none;stroke-opacity:1"
       d="m 199.05778,94.540023 c 0.70165,0.0052 1.40331,0.01169 2.10496,0.02466 0.70164,0.01299 1.40329,0.03116 2.10494,0.06361 0.70165,0.03116 1.4033,0.07788 2.10494,0.150582 0.70165,0.0727 1.4033,0.17265 2.10495,0.319337 0.70164,0.147986 1.40329,0.342704 2.10494,0.606222 0.7015,0.263519 1.40315,0.595837 2.1048,1.006043 0.70165,0.410205 1.40329,0.898295 2.10494,1.434419 0.70165,0.537414 1.4033,1.124162 2.10495,1.673263 0.70164,0.549111 1.40329,1.059261 2.10494,1.386391 0.70165,0.32583 1.40331,0.46213 2.10558,0.24405 0.70164,-0.21809 1.40329,-0.79834 2.10494,-1.85112 0.70165,-1.052765 1.40329,-2.584543 2.10494,-4.564174 0.70165,-1.979633 1.4033,-4.409714 2.10495,-7.083842 0.70164,-2.674127 1.40329,-5.587109 2.10494,-8.407924 0.70166,-2.820816 1.40331,-5.537781 2.10495,-7.819876 0.70165,-2.280798 1.4033,-4.11634 2.10495,-5.306716 0.70164,-1.189078 1.40329,-1.727798 2.10494,-1.623948 0.70165,0.105148 1.4033,0.852865 2.10494,2.05752 0.70165,1.204656 1.4033,2.862355 2.10496,4.704388 0.70165,1.843331 1.40174,3.8671 2.10338,5.836349 0.70165,1.967949 1.4033,3.878783 2.10495,5.589705 0.70164,1.710922 1.40329,3.221935 2.10494,4.49539 0.70165,1.273456 1.4033,2.309356 2.10496,3.138855 0.70164,0.830797 1.40329,1.456491 2.10494,1.938094 0.70165,0.480304 1.40329,0.817815 2.10494,1.067054 0.70165,0.24924 1.4033,0.411504 2.10494,0.528335 0.70165,0.115533 1.4033,0.185631 2.10495,0.23496 0.70166,0.04932 1.40331,0.07659 2.10495,0.09606 0.70165,0.01817 1.4033,0.02856 2.10495,0.03505"
       title="(0.5+x)*exp(-x*x)"
       id="path7261" />
    <text
       xml:space="preserve"
       style="font-size:5.91357px;line-height:1.25;font-family:Arial;-inkscape-font-specification:Arial;text-align:center;text-anchor:middle;stroke-width:0.147839"
       x="73.307838"
       y="46.218666"
       id="text7927"><tspan
         sodipodi:role="line"
         id="tspan7925"
         style="stroke-width:0.147839"
         x="73.307838"
         y="46.218666">p</tspan></text>
    <text
       xml:space="preserve"
       style="font-size:5.91357px;line-height:1.25;font-family:Arial;-inkscape-font-specification:Arial;text-align:center;text-anchor:middle;stroke-width:0.147839"
       x="163.26636"
       y="46.218666"
       id="text8223"><tspan
         sodipodi:role="line"
         id="tspan8221"
         style="stroke-width:0.147839"
         x="163.26636"
         y="46.218666">p</tspan></text>
    <text
       xml:space="preserve"
       style="font-size:5.91357px;line-height:1.25;font-family:Arial;-inkscape-font-specification:Arial;text-align:center;text-anchor:middle;stroke-width:0.147839"
       x="258.51611"
       y="46.218666"
       id="text8227"><tspan
         sodipodi:role="line"
         id="tspan8225"
         style="stroke-width:0.147839"
         x="258.51611"
         y="46.218666">p</tspan></text>
    <text
       xml:space="preserve"
       style="font-size:5.91357px;line-height:1.25;font-family:Arial;-inkscape-font-specification:Arial;text-align:center;text-anchor:middle;stroke-width:0.147839"
       x="258.51611"
       y="99.66449"
       id="text8231"><tspan
         sodipodi:role="line"
         id="tspan8229"
         style="stroke-width:0.147839"
         x="258.51611"
         y="99.66449">p</tspan></text>
    <text
       xml:space="preserve"
       style="font-size:5.91357px;line-height:1.25;font-family:Arial;-inkscape-font-specification:Arial;text-align:center;text-anchor:middle;stroke-width:0.147839"
       x="163.26634"
       y="99.66449"
       id="text8235"><tspan
         sodipodi:role="line"
         id="tspan8233"
         style="stroke-width:0.147839"
         x="163.26634"
         y="99.66449">p</tspan></text>
    <text
       xml:space="preserve"
       style="font-size:5.91357px;line-height:1.25;font-family:Arial;-inkscape-font-specification:Arial;text-align:center;text-anchor:middle;stroke-width:0.147839"
       x="73.307846"
       y="99.66449"
       id="text8239"><tspan
         sodipodi:role="line"
         id="tspan8237"
         style="stroke-width:0.147839"
         x="73.307846"
         y="99.66449">p</tspan></text>
    <path
       style="fill:none;stroke:#f80000;stroke-width:0.641624;stroke-linecap:butt;stroke-linejoin:miter;stroke-miterlimit:4;stroke-dasharray:0.641624, 0.641624;stroke-dashoffset:0;stroke-opacity:1"
       d="M 40.180426,45.919406 V 1.4110169"
       id="path8378"
       sodipodi:nodetypes="cc" />
    <path
       style="fill:none;stroke:#f80000;stroke-width:0.64853;stroke-linecap:butt;stroke-linejoin:miter;stroke-miterlimit:4;stroke-dasharray:0.64853, 0.64853;stroke-dashoffset:0;stroke-opacity:1"
       d="M 40.180426,98.306912 V 52.835171"
       id="path9439"
       sodipodi:nodetypes="cc" />
    <path
       style="fill:none;stroke:#0054ff;stroke-width:0.641624;stroke-linecap:butt;stroke-linejoin:miter;stroke-miterlimit:4;stroke-dasharray:0.641624, 0.641624;stroke-dashoffset:0;stroke-opacity:1"
       d="M 130.13873,45.919406 V 1.4110169"
       id="path9761"
       sodipodi:nodetypes="cc" />
    <path
       style="fill:none;stroke:#0054ff;stroke-width:0.64853;stroke-linecap:butt;stroke-linejoin:miter;stroke-miterlimit:4;stroke-dasharray:0.64853, 0.64853;stroke-dashoffset:0;stroke-opacity:1"
       d="M 130.13873,98.306912 V 52.835171"
       id="path9763"
       sodipodi:nodetypes="cc" />
    <path
       style="fill:none;stroke:#0054ff;stroke-width:0.641624;stroke-linecap:butt;stroke-linejoin:miter;stroke-miterlimit:4;stroke-dasharray:0.641624, 0.641624;stroke-dashoffset:0;stroke-opacity:1"
       d="M 222.21377,45.919406 V 1.4110169"
       id="path11795"
       sodipodi:nodetypes="cc" />
    <path
       style="fill:none;stroke:#0054ff;stroke-width:0.64853;stroke-linecap:butt;stroke-linejoin:miter;stroke-miterlimit:4;stroke-dasharray:0.64853, 0.64853;stroke-dashoffset:0;stroke-opacity:1"
       d="M 222.21377,98.306912 V 52.835171"
       id="path11797"
       sodipodi:nodetypes="cc" />
    <path
       style="fill:none;stroke:#f80000;stroke-width:0.641624;stroke-linecap:butt;stroke-linejoin:miter;stroke-miterlimit:4;stroke-dasharray:0.641624, 0.641624;stroke-dashoffset:0;stroke-opacity:1"
       d="M 227.50544,45.919406 V 1.4110169"
       id="path11959"
       sodipodi:nodetypes="cc" />
    <path
       style="fill:none;stroke:#f80000;stroke-width:0.64853;stroke-linecap:butt;stroke-linejoin:miter;stroke-miterlimit:4;stroke-dasharray:0.64853, 0.64853;stroke-dashoffset:0;stroke-opacity:1"
       d="M 227.50544,98.306912 V 52.835171"
       id="path11961"
       sodipodi:nodetypes="cc" />
    <path
       style="fill:none;stroke:#9a00ff;stroke-width:0.641624;stroke-linecap:butt;stroke-linejoin:miter;stroke-miterlimit:4;stroke-dasharray:0.641624, 0.641624;stroke-dashoffset:0;stroke-opacity:1"
       d="M 225.38879,45.919406 V 1.4110169"
       id="path14227"
       sodipodi:nodetypes="cc" />
    <path
       style="fill:none;stroke:#9a00ff;stroke-width:0.64853;stroke-linecap:butt;stroke-linejoin:miter;stroke-miterlimit:4;stroke-dasharray:0.64853, 0.64853;stroke-dashoffset:0;stroke-opacity:1"
       d="M 232.79711,98.306912 V 52.835171"
       id="path17370"
       sodipodi:nodetypes="cc" />
  </g>
</svg>
